<svg version="1.1" xmlns="http://www.w3.org/2000/svg" xmlns:xlink="http://www.w3.org/1999/xlink" width="512px" height="512px" viewBox="0,0,256,256"><g fill="#ffffff" fill-rule="nonzero" stroke="none" stroke-width="1" stroke-linecap="butt" stroke-linejoin="miter" stroke-miterlimit="10" stroke-dasharray="" stroke-dashoffset="0" font-family="none" font-weight="none" font-size="none" text-anchor="none" style="mix-blend-mode: normal"><g transform="translate(-0.00126,-0.01154) scale(0.5,0.5)"><!--! Font Awesome Free 6.4.2 by @fontawesome - https://fontawesome.com License - https://fontawesome.com/license (Commercial License) Copyright 2023 Fonticons, Inc. --><path d="M226.5,92.9c14.3,42.9 -0.3,86.2 -32.6,96.8c-32.3,10.6 -70.1,-15.6 -84.4,-58.5c-14.3,-42.9 0.3,-86.2 32.6,-96.8c32.3,-10.6 70.1,15.6 84.4,58.5zM100.4,198.6c18.9,32.4 14.3,70.1 -10.2,84.1c-24.5,14 -59.7,-0.9 -78.5,-33.3c-18.8,-32.4 -14.4,-70.1 10.1,-84.1c24.5,-14 59.7,0.9 78.5,33.3zM69.2,401.2c52.4,-141.3 145.5,-177.2 186.8,-177.2c41.3,0 134.4,35.9 186.8,177.2c3.6,9.7 5.2,20.1 5.2,30.5v1.6c0,25.8 -20.9,46.7 -46.7,46.7c-11.5,0 -22.9,-1.4 -34,-4.2l-88,-22c-15.3,-3.8 -31.3,-3.8 -46.6,0l-88,22c-11.1,2.8 -22.5,4.2 -34,4.2c-25.8,0 -46.7,-20.9 -46.7,-46.7v-1.6c0,-10.4 1.6,-20.8 5.2,-30.5zM421.8,282.7c-24.5,-14 -29.1,-51.7 -10.2,-84.1c18.9,-32.4 54,-47.3 78.5,-33.3c24.5,14 29.1,51.7 10.2,84.1c-18.9,32.4 -54,47.3 -78.5,33.3zM310.1,189.7c-32.3,-10.6 -46.9,-53.9 -32.6,-96.8c14.3,-42.9 52.1,-69.1 84.4,-58.5c32.3,10.6 46.9,53.9 32.6,96.8c-14.3,42.9 -52.1,69.1 -84.4,58.5z"></path></g></g></svg>