<svg version="1.1" xmlns="http://www.w3.org/2000/svg" xmlns:xlink="http://www.w3.org/1999/xlink" width="512px" height="512px" viewBox="0,0,256,256"><g fill="#3d3e4e" fill-rule="nonzero" stroke="none" stroke-width="1" stroke-linecap="butt" stroke-linejoin="miter" stroke-miterlimit="10" stroke-dasharray="" stroke-dashoffset="0" font-family="none" font-weight="none" font-size="none" text-anchor="none" style="mix-blend-mode: normal"><g transform="scale(0.5,0.5)"><!--! Font Awesome Free 6.4.2 by @fontawesome - https://fontawesome.com License - https://fontawesome.com/license (Commercial License) Copyright 2023 Fonticons, Inc. --><path d="M256,48c114.87523,0 208,93.12477 208,208c0,114.87523 -93.12477,208 -208,208c-114.87523,0 -208,-93.12477 -208,-208c0,-114.87523 93.12477,-208 208,-208zM256,512c141.3849,0 256,-114.6151 256,-256c0,-141.3849 -114.6151,-256 -256,-256c-141.3849,0 -256,114.6151 -256,256c0,141.3849 114.6151,256 256,256zM175,175c-9.4,9.4 -9.4,24.6 0,33.9l47,47l-47,47c-9.4,9.4 -9.4,24.6 0,33.9c9.4,9.3 24.6,9.4 33.9,0l47,-47l47,47c9.4,9.4 24.6,9.4 33.9,0c9.3,-9.4 9.4,-24.6 0,-33.9l-47,-47l47,-47c9.4,-9.4 9.4,-24.6 0,-33.9c-9.4,-9.3 -24.6,-9.4 -33.9,0l-47,47l-47,-47c-9.4,-9.4 -24.6,-9.4 -33.9,0z"></path></g></g></svg>