<svg version="1.1" xmlns="http://www.w3.org/2000/svg" xmlns:xlink="http://www.w3.org/1999/xlink" width="512px" height="512px" viewBox="0,0,256,256"><g fill="#ffffff" fill-rule="nonzero" stroke="none" stroke-width="1" stroke-linecap="butt" stroke-linejoin="miter" stroke-miterlimit="10" stroke-dasharray="" stroke-dashoffset="0" font-family="none" font-weight="none" font-size="none" text-anchor="none" style="mix-blend-mode: normal"><g transform="scale(0.5,0.5)"><!--! Font Awesome Free 6.4.2 by @fontawesome - https://fontawesome.com License - https://fontawesome.com/license (Commercial License) Copyright 2023 Fonticons, Inc. --><path d="M142.9,142.9c62.2,-62.2 162.7,-62.5 225.3,-1l-41.2,41.1c-6.9,6.9 -8.9,17.2 -5.2,26.2c3.7,9 12.5,14.8 22.2,14.8h119.5v0h8.5c13.3,0 24,-10.7 24,-24v-128c0,-9.7 -5.8,-18.5 -14.8,-22.2c-9,-3.7 -19.3,-1.7 -26.2,5.2l-41.6,41.6c-87.6,-86.5 -228.7,-86.2 -315.8,1c-24.4,24.4 -42,53.1 -52.8,83.8c-5.9,16.7 2.9,34.9 19.5,40.8c16.6,5.9 34.9,-2.9 40.8,-19.5c7.7,-21.8 20.2,-42.3 37.8,-59.8zM16,312v7.6v0.7v119.7c0,9.7 5.8,18.5 14.8,22.2c9,3.7 19.3,1.7 26.2,-5.2l41.6,-41.6c87.6,86.5 228.7,86.2 315.8,-1c24.4,-24.4 42.1,-53.1 52.9,-83.7c5.9,-16.7 -2.9,-34.9 -19.5,-40.8c-16.6,-5.9 -34.9,2.9 -40.8,19.5c-7.7,21.8 -20.2,42.3 -37.8,59.8c-62.2,62.2 -162.7,62.5 -225.3,1l41.1,-41.2c6.9,-6.9 8.9,-17.2 5.2,-26.2c-3.7,-9 -12.5,-14.8 -22.2,-14.8h-119.6h-0.7h-7.7c-13.3,0 -24,10.7 -24,24z"></path></g></g></svg>