<svg version="1.1" xmlns="http://www.w3.org/2000/svg" xmlns:xlink="http://www.w3.org/1999/xlink" width="640px" height="512px" viewBox="0,0,256,204.79688"><g fill="#ffffff" fill-rule="nonzero" stroke="none" stroke-width="1" stroke-linecap="butt" stroke-linejoin="miter" stroke-miterlimit="10" stroke-dasharray="" stroke-dashoffset="0" font-family="none" font-weight="none" font-size="none" text-anchor="none" style="mix-blend-mode: normal"><g transform="translate(0,0.00604) scale(0.4,0.4)"><!--! Font Awesome Free 6.4.2 by @fontawesome - https://fontawesome.com License - https://fontawesome.com/license (Commercial License) Copyright 2023 Fonticons, Inc. --><path d="M353.8,54.1l-23.6,-47.8c-3.9,-8.3 -16.1,-8.6 -20.4,0l-23.6,47.8l-52.3,7.5c-9.3,1.4 -13.3,12.9 -6.4,19.8l38,37l-9,52.1c-1.4,9.3 8.2,16.5 16.8,12.2l46.9,-24.8l46.6,24.4c8.6,4.3 18.3,-2.9 16.8,-12.2l-9,-52.1l38,-36.6c6.8,-6.8 2.9,-18.3 -6.4,-19.8l-52.3,-7.5zM256,256c-17.7,0 -32,14.3 -32,32v192c0,17.7 14.3,32 32,32h128c17.7,0 32,-14.3 32,-32v-192c0,-17.7 -14.3,-32 -32,-32zM32,320c-17.7,0 -32,14.3 -32,32v128c0,17.7 14.3,32 32,32h128c17.7,0 32,-14.3 32,-32v-128c0,-17.7 -14.3,-32 -32,-32zM448,416v64c0,17.7 14.3,32 32,32h128c17.7,0 32,-14.3 32,-32v-64c0,-17.7 -14.3,-32 -32,-32h-128c-17.7,0 -32,14.3 -32,32z"></path></g></g></svg>