<svg version="1.1" xmlns="http://www.w3.org/2000/svg" xmlns:xlink="http://www.w3.org/1999/xlink" width="512px" height="512px" viewBox="0,0,256,256"><g fill="#ffffff" fill-rule="nonzero" stroke="none" stroke-width="1" stroke-linecap="butt" stroke-linejoin="miter" stroke-miterlimit="10" stroke-dasharray="" stroke-dashoffset="0" font-family="none" font-weight="none" font-size="none" text-anchor="none" style="mix-blend-mode: normal"><g transform="scale(0.5,0.5)"><!--! Font Awesome Free 6.4.2 by @fontawesome - https://fontawesome.com License - https://fontawesome.com/license (Commercial License) Copyright 2023 Fonticons, Inc. --><path d="M177.5,414c-8.8,3.8 -19,2 -26,-4.6l-144,-136c-4.8,-4.5 -7.5,-10.8 -7.5,-17.4c0,-6.6 2.7,-12.9 7.5,-17.4l144,-136c7,-6.6 17.2,-8.4 26,-4.6c8.8,3.8 14.5,12.5 14.5,22v72h288c17.7,0 32,14.3 32,32v64c0,17.7 -14.3,32 -32,32h-288v72c0,9.6 -5.7,18.2 -14.5,22z"></path></g></g></svg>