<svg version="1.1" xmlns="http://www.w3.org/2000/svg" xmlns:xlink="http://www.w3.org/1999/xlink" width="512px" height="512px" viewBox="0,0,256,256"><g fill="#ffffff" fill-rule="nonzero" stroke="none" stroke-width="1" stroke-linecap="butt" stroke-linejoin="miter" stroke-miterlimit="10" stroke-dasharray="" stroke-dashoffset="0" font-family="none" font-weight="none" font-size="none" text-anchor="none" style="mix-blend-mode: normal"><g transform="translate(0.025,0.025) scale(0.5,0.5)"><!--! Font Awesome Free 6.4.2 by @fontawesome - https://fontawesome.com License - https://fontawesome.com/license (Commercial License) Copyright 2023 Fonticons, Inc. --><path d="M495.9,166.6c3.2,8.7 0.5,18.4 -6.4,24.6l-43.3,39.4c1.1,8.3 1.7,16.8 1.7,25.4c0,8.6 -0.6,17.1 -1.7,25.4l43.3,39.4c6.9,6.2 9.6,15.9 6.4,24.6c-4.4,11.9 -9.7,23.3 -15.8,34.3l-4.7,8.1c-6.6,11 -14,21.4 -22.1,31.2c-5.9,7.2 -15.7,9.6 -24.5,6.8l-55.7,-17.7c-13.4,10.3 -28.2,18.9 -44,25.4l-12.5,57.1c-2,9.1 -9,16.3 -18.2,17.8c-13.8,2.3 -28,3.5 -42.5,3.5c-14.5,0 -28.7,-1.2 -42.5,-3.5c-9.2,-1.5 -16.2,-8.7 -18.2,-17.8l-12.5,-57.1c-15.8,-6.5 -30.6,-15.1 -44,-25.4l-55.6,17.8c-8.8,2.8 -18.6,0.3 -24.5,-6.8c-8.1,-9.8 -15.5,-20.2 -22.1,-31.2l-4.7,-8.1c-6.1,-11 -11.4,-22.4 -15.8,-34.3c-3.2,-8.7 -0.5,-18.4 6.4,-24.6l43.3,-39.4c-1.1,-8.4 -1.7,-16.9 -1.7,-25.5c0,-8.6 0.6,-17.1 1.7,-25.4l-43.3,-39.4c-6.9,-6.2 -9.6,-15.9 -6.4,-24.6c4.4,-11.9 9.7,-23.3 15.8,-34.3l4.7,-8.1c6.6,-11 14,-21.4 22.1,-31.2c5.9,-7.2 15.7,-9.6 24.5,-6.8l55.7,17.7c13.4,-10.3 28.2,-18.9 44,-25.4l12.5,-57.1c2,-9.1 9,-16.3 18.2,-17.8c13.8,-2.4 28,-3.6 42.5,-3.6c14.5,0 28.7,1.2 42.5,3.5c9.2,1.5 16.2,8.7 18.2,17.8l12.5,57.1c15.8,6.5 30.6,15.1 44,25.4l55.7,-17.7c8.8,-2.8 18.6,-0.3 24.5,6.8c8.1,9.8 15.5,20.2 22.1,31.2l4.7,8.1c6.1,11 11.4,22.4 15.8,34.3zM256,336c44.18278,0 80,-35.81722 80,-80c0,-44.18278 -35.81722,-80 -80,-80c-44.18278,0 -80,35.81722 -80,80c0,44.18278 35.81722,80 80,80z"></path></g></g></svg>